#!OML:ASF H:\ManfredETheater\Project 1\Capture day 1\Session 1\subject.ASF
:FULLY-SPECIFIED
:DEGREES
1541
root 3.17627 18.0418 -4.07386 5.34775 0.832061 -0.481828
lowerback 5.54449 0.635223 -1.80565
upperback -2.62813 0.766875 1.11344
thorax -5.88691 0.47251 2.09263
lowerneck -20.9644 -3.11302 -4.0592
upperneck 9.33966 -3.81431 5.23476
head 6.40705 -1.5355 1.91493
rclavicle 2.82647e-015 1.39149e-015
rhumerus -19.2591 -25.9839 -0.420438
rradius 24.2279
rwrist 4.68327
rhand -18.4368 -18.7442
rfingers 7.12502
rthumb 7.8488 -48.5785
lclavicle 2.82647e-015 1.39149e-015
lhumerus -18.7436 22.5424 7.29549
lradius 24.3391
lwrist -18.0242
lhand -16.2698 16.8589
lfingers 7.12502
lthumb 9.93988 46.6042
rfemur -16.577 -14.0132 10.3097
rtibia 41.6853
rfoot -21.4343 -12.1077
rtoes 4.04043
lfemur -14.8364 -4.87493 -16.6394
ltibia 33.3908
lfoot -16.6732 9.79333
ltoes -6.95025
1542
root 3.13679 18.0473 -4.07903 5.38515 0.945585 -0.509913
lowerback 5.54651 0.611084 -1.75612
upperback -2.63208 0.738273 1.10896
thorax -5.88989 0.456426 2.0631
lowerneck -20.9788 -3.11409 -4.05354
upperneck 9.36951 -3.81425 5.20921
head 6.41827 -1.53705 1.9056
rclavicle -9.31803e-016 1.37161e-014
rhumerus -19.3382 -26.0155 -0.374062
rradius 24.2048
rwrist 4.66212
rhand -18.4068 -18.7753
rfingers 7.12502
rthumb 7.87775 -48.6085
lclavicle -9.31803e-016 1.37161e-014
lhumerus -18.6453 22.4882 7.48687
lradius 24.3506
lwrist -18.0536
lhand -16.2785 16.8076
lfingers 7.12502
lthumb 9.93148 46.5533
rfemur -16.2966 -13.527 9.91395
rtibia 40.9294
rfoot -20.5501 -13.0809
rtoes 5.67589
lfemur -14.8449 -4.96005 -16.4532
ltibia 33.2457
lfoot -16.5683 9.76983
ltoes -7.06137
1543
root 3.0952 18.0519 -4.08398 5.42475 1.05621 -0.537389
lowerback 5.54162 0.586643 -1.71057
upperback -2.63676 0.708989 1.10345
thorax -5.88974 0.440111 2.03485
lowerneck -21.0003 -3.11279 -4.04375
upperneck 9.40857 -3.81316 5.18958
head 6.43363 -1.53724 1.89761
rclavicle -1.01567e-014 1.0138e-014
rhumerus -19.4092 -26.0826 -0.324633
rradius 24.1692
rwrist 4.65192
rhand -18.3686 -18.8232
rfingers 7.12502
rthumb 7.91459 -48.655
lclavicle -1.01567e-014 1.0138e-014
lhumerus -18.5459 22.4642 7.661
lradius 24.3511
lwrist -18.1001
lhand -16.2875 16.7685
lfingers 7.12502
lthumb 9.92276 46.5146
rfemur -15.9826 -12.977 9.53306
rtibia 40.0837
rfoot -19.7212 -13.8852
rtoes 6.92891
lfemur -14.8595 -5.04695 -16.2597
ltibia 33.1121
lfoot -16.4753 9.75167
ltoes -7.17827
1544
root 3.0515 18.0553 -4.08874 5.46765 1.16335 -0.560791
lowerback 5.52886 0.561503 -1.67166
upperback -2.64214 0.678184 1.09515
thorax -5.88587 0.423212 2.00764
lowerneck -21.0263 -3.10941 -4.03154
upperneck 9.45313 -3.81131 5.17844
head 6.45164 -1.53611 1.89207
rclavicle 1.05853e-014 2.38542e-015
rhumerus -19.4716 -26.1767 -0.275237
rradius 24.1247
rwrist 4.65112
rhand -18.325 -18.8838
rfingers 7.12502
rthumb 7.95667 -48.7141
lclavicle 1.05853e-014 2.38542e-015
lhumerus -18.4462 22.4695 7.81317
lradius 24.341
lwrist -18.1578
lhand -16.2967 16.7424
lfingers 7.12502
lthumb 9.91396 46.489
rfemur -15.641 -12.38 9.16668
rtibia 39.1648
rfoot -18.9923 -14.5291
rtoes 7.77247
lfemur -14.8813 -5.13412 -16.0627
ltibia 32.9897
lfoot -16.3952 9.73902
ltoes -7.30049
1545
root 3.00567 18.0575 -4.09334 5.51509 1.26672 -0.575754
lowerback 5.50694 0.535479 -1.64287
upperback -2.64795 0.64524 1.08216
thorax -5.87722 0.405506 1.98149
lowerneck -21.055 -3.10481 -4.01905
upperneck 9.50006 -3.80946 5.17762
head 6.47112 -1.53399 1.88982
rclavicle 5.05037e-015 1.59028e-015
rhumerus -19.526 -26.2873 -0.228961
rradius 24.0757
rwrist 4.65609
rhand -18.2795 -18.9525
rfingers 7.12502
rthumb 8.00058 -48.7811
lclavicle 5.05037e-015 1.59028e-015
lhumerus -18.3469 22.4986 7.94118
lradius 24.3227
lwrist -18.2173
lhand -16.3051 16.7291
lfingers 7.12502
lthumb 9.90582 46.476
rfemur -15.2793 -11.7542 8.81321
rtibia 38.19
rfoot -18.3821 -15.0259
rtoes 8.22126
lfemur -14.9111 -5.21924 -15.8667
ltibia 32.8777
lfoot -16.3285 9.72978
ltoes -7.42808
1546
root 2.95767 18.0583 -4.0978 5.56808 1.36614 -0.579003
lowerback 5.47496 0.508583 -1.62729
upperback -2.65405 0.609863 1.0631
thorax -5.86315 0.386929 1.95672
lowerneck -21.084 -3.10006 -4.00845
upperneck 9.5457 -3.80856 5.18816
head 6.49059 -1.53139 1.89147
rclavicle -8.63471e-016 2.98177e-015
rhumerus -19.5732 -26.4058 -0.187972
rradius 24.0255
rwrist 4.66551
rhand -18.2352 -19.0228
rfingers 7.12502
rthumb 8.04332 -48.8497
lclavicle -8.63471e-016 2.98177e-015
lhumerus -18.2482 22.5445 8.04437
lradius 24.2983
lwrist -18.2713
lhand -16.3124 16.7263
lfingers 7.12502
lthumb 9.89876 46.4736
rfemur -14.9052 -11.115 8.47204
rtibia 37.1767
rfoot -17.8809 -15.3957
rtoes 8.33282
lfemur -14.9496 -5.29932 -15.6745
ltibia 32.7743
lfoot -16.2755 9.71969
ltoes -7.56126
1547
root 2.90741 18.0578 -4.10212 5.62708 1.46122 -0.566875
lowerback 5.43249 0.481135 -1.62877
upperback -2.6601 0.57212 1.03659
thorax -5.84308 0.367627 1.93407
lowerneck -21.1118 -3.09645 -4.00148
upperneck 9.58772 -3.80981 5.20996
head 6.50916 -1.529 1.89713
rclavicle 2.27981e-015 -5.36719e-015
rhumerus -19.615 -26.5197 -0.154628
rradius 23.9793
rwrist 4.673
rhand -18.1952 -19.09
rfingers 7.12502
rthumb 8.08199 -48.9155
lclavicle 2.27981e-015 -5.36719e-015
lhumerus -18.1501 22.5965 8.1238
lradius 24.2714
lwrist -18.3116
lhand -16.3178 16.7329
lfingers 7.12502
lthumb 9.89358 46.4804
rfemur -14.5264 -10.4744 8.14156
rtibia 36.1418
rfoot -17.4509 -15.6657
rtoes 8.1925
lfemur -14.9958 -5.371 -15.489
ltibia 32.6768
lfoot -16.2355 9.70329
ltoes -7.7012
1548
root 2.85478 18.056 -4.10632 5.69198 1.55133 -0.536614
lowerback 5.37952 0.45371 -1.6509
upperback -2.66548 0.532483 1.00167
thorax -5.81639 0.347935 1.91445
lowerneck -21.1373 -3.09517 -3.99924
upperneck 9.6238 -3.81431 5.24226
head 6.52594 -1.5275 1.90662
rclavicle -8.69683e-016 -1.98785e-016
rhumerus -19.6533 -26.6218 -0.130179
rradius 23.9404
rwrist 4.67627
rhand -18.1613 -19.1493
rfingers 7.12502
rthumb 8.11465 -48.9735
lclavicle -8.69683e-016 -1.98785e-016
lhumerus -18.0519 22.6466 8.18098
lradius 24.2447
lwrist -18.335
lhand -16.3205 16.7478
lfingers 7.12502
lthumb 9.89098 46.4954
rfemur -14.1498 -9.83876 7.82072
rtibia 35.1009
rfoot -17.0373 -15.8692
rtoes 7.90476
lfemur -15.0483 -5.43139 -15.3122
ltibia 32.5822
lfoot -16.2075 9.67502
ltoes -7.84795
1549
root 2.79966 18.0528 -4.1104 5.76233 1.63591 -0.486307
lowerback 5.31633 0.426819 -1.69671
upperback -2.6699 0.491418 0.957691
thorax -5.78297 0.328174 1.89885
lowerneck -21.1583 -3.09694 -4.00225
upperneck 9.65203 -3.82272 5.28386
head 6.53997 -1.52737 1.91956
rclavicle -3.91979e-015 -6.4605e-015
rhumerus -19.6899 -26.7034 -0.115778
rradius 23.9117
rwrist 4.67128
rhand -18.1342 -19.1971
rfingers 7.12502
rthumb 8.14084 -49.0202
lclavicle -3.91979e-015 -6.4605e-015
lhumerus -17.9531 22.6896 8.21736
lradius 24.22
lwrist -18.3435
lhand -16.3203 16.7686
lfingers 7.12502
lthumb 9.89116 46.5162
rfemur -13.7812 -9.21018 7.50898
rtibia 34.0682
rfoot -16.5825 -16.0435
rtoes 7.56065
lfemur -15.1053 -5.47798 -15.1452
ltibia 32.4879
lfoot -16.1908 9.62978
ltoes -8.00191
1550
root 2.7419 18.0484 -4.11442 5.83735 1.71429 -0.414474
lowerback 5.24398 0.401118 -1.76926
upperback -2.67295 0.449623 0.904324
thorax -5.74302 0.308786 1.88855
lowerneck -21.174 -3.10233 -4.01035
upperneck 9.67136 -3.83549 5.33287
head 6.55078 -1.52904 1.93525
rclavicle -3.47873e-015 9.93923e-016
rhumerus -19.7266 -26.7606 -0.111497
rradius 23.8952
rwrist 4.65668
rhand -18.1138 -19.2312
rfingers 7.12502
rthumb 8.16054 -49.0536
lclavicle -3.47873e-015 9.93923e-016
lhumerus -17.8528 22.7196 8.23492
lradius 24.1992
lwrist -18.3375
lhand -16.3177 16.7941
lfingers 7.12502
lthumb 9.89362 46.5416
rfemur -13.4251 -8.58667 7.20626
rtibia 33.0566
rfoot -16.0476 -16.2214
rtoes 7.22084
lfemur -15.1655 -5.50931 -14.9887
ltibia 32.3926
lfoot -16.1848 9.56423
ltoes -8.16226
1551
root 2.68141 18.0427 -4.11843 5.91641 1.78605 -0.320954
lowerback 5.1637 0.376927 -1.86976
upperback -2.67466 0.407524 0.84149
thorax -5.69731 0.290016 1.8841
lowerneck -21.1832 -3.11129 -4.02338
upperneck 9.68113 -3.85249 5.38811
head 6.55789 -1.53254 1.95331
rclavicle -8.82107e-015 8.64713e-015
rhumerus -19.7642 -26.7945 -0.116834
rradius 23.8903
rwrist 4.63522
rhand -18.0991 -19.25
rfingers 7.12502
rthumb 8.17469 -49.0718
lclavicle -8.82107e-015 8.64713e-015
lhumerus -17.7499 22.7365 8.2347
lradius 24.1826
lwrist -18.3226
lhand -16.3131 16.8213
lfingers 7.12502
lthumb 9.89812 46.5686
rfemur -13.0847 -7.96688 6.91377
rtibia 32.0777
rfoot -15.4245 -16.4257
rtoes 6.90571
lfemur -15.2287 -5.52446 -14.8424
ltibia 32.2973
lfoot -16.1898 9.47685
ltoes -8.32904
